<svg xmlns="http://www.w3.org/2000/svg" xmlns:xlink="http://www.w3.org/1999/xlink" width="512" height="512" version="1.1" viewBox="0 0 512 512"><title>enigma-logo</title><desc>Created with Sketch.</desc><g id="Page-1" fill="none" fill-rule="evenodd" stroke="none" stroke-width="1"><g id="server-logo" fill-rule="nonzero"><circle id="Oval" cx="256" cy="256" r="256" fill="#8B2E72"/><path id="Shape" fill="#590F38" d="M512,256 C512,231.641 508.596,208.077 502.24,185.756 L432.791,116.307 L305.207,54.707 L268,17.5 L223.667,49 L109.228,96.333 L54.707,205.667 L17.5,268 L54.707,305.207 L91.15,409.565 L183.008,501.423 C206.142,508.293 230.636,512 256,512 C397.385,512 512,397.385 512,256 Z"/><path id="Shape" fill="#35CCFF" d="M494.5,244 L480.973,244 C478.071,188.332 455.018,136.405 415.307,96.693 C375.595,56.982 323.668,33.929 268,31.026 L268,17.5 L244,17.5 L244,31.026 C188.332,33.928 136.405,56.982 96.693,96.693 C56.981,136.404 33.929,188.332 31.027,244 L17.5,244 L17.5,268 L31.027,268 C33.929,323.668 56.982,375.595 96.694,415.307 C136.406,455.019 188.332,478.071 244,480.974 L244,494.5 L268,494.5 L268,480.974 C323.668,478.072 375.595,455.018 415.307,415.307 C455.018,375.596 478.071,323.669 480.973,268 L494.5,268 L494.5,244 Z M268,456.926 L268,431.5 L244,431.5 L244,456.926 C142.544,450.93 61.071,369.455 55.075,268 L80.5,268 L80.5,244 L55.075,244 C61.071,142.545 142.544,61.07 244,55.074 L244,80.5 L268,80.5 L268,55.074 C369.455,61.07 450.929,142.545 456.925,244 L431.5,244 L431.5,268 L456.925,268 C450.929,369.455 369.455,450.93 268,456.926 Z"/><path id="Shape" fill="#F5A623" d="M494.5,244 L480.973,244 C478.071,188.332 455.018,136.405 415.307,96.693 C375.595,56.982 323.668,33.929 268,31.026 L268,17.5 L244,17.5 L244,31.026 C188.332,33.928 136.405,56.982 96.693,96.693 C56.981,136.404 33.929,188.332 31.027,244 L17.5,244 L17.5,268 L31.027,268 C33.929,323.668 56.982,375.595 96.694,415.307 C136.406,455.019 188.332,478.071 244,480.974 L244,494.5 L268,494.5 L268,480.974 C323.668,478.072 375.595,455.018 415.307,415.307 C455.018,375.596 478.071,323.669 480.973,268 L494.5,268 L494.5,244 Z M268,456.926 L268,431.5 L244,431.5 L244,456.926 C142.544,450.93 61.071,369.455 55.075,268 L80.5,268 L80.5,244 L55.075,244 C61.071,142.545 142.544,61.07 244,55.074 L244,80.5 L268,80.5 L268,55.074 C369.455,61.07 450.929,142.545 456.925,244 L431.5,244 L431.5,268 L456.925,268 C450.929,369.455 369.455,450.93 268,456.926 Z"/><path id="Shape" fill="#F5A623" d="M480.973,244 C478.071,188.332 455.018,136.405 415.307,96.693 C375.595,56.982 323.668,33.929 268,31.026 L268,17.5 L255.667,17.5 L255.667,80.5 L268,80.5 L268,55.074 C369.455,61.07 450.929,142.545 456.925,244 L431.5,244 L431.5,268 L456.925,268 C450.929,369.455 369.455,450.93 268,456.926 L268,431.5 L255.667,431.5 L255.667,494.5 L268,494.5 L268,480.974 C323.668,478.072 375.595,455.018 415.307,415.307 C455.018,375.596 478.071,323.669 480.973,268 L494.5,268 L494.5,244 L480.973,244 Z"/></g><g id="q" fill-rule="nonzero" transform="translate(122.000000, 122.000000)"><path id="Shape" fill="#FFF" d="M19.2951896,142.472809 C-6.61273975,100.371732 6.49795468,45.2266637 48.5850165,19.3041275 C90.6720783,-6.61840875 145.799477,6.49596278 171.714232,48.5970398 C180.631289,63.0801507 185.233946,79.8080781 184.990845,96.8170014 C183.392569,146.315889 142.571421,185.475174 93.0689674,184.995643 L10.4742178,184.995643 L19.1676005,170.224708 C24.345196,161.707116 24.3903509,151.03452 19.2951896,142.472809 Z"/><path id="Shape" fill="#D1EEFF" d="M247.792147,218.749639 C273.549887,176.908113 260.483262,122.124993 218.607285,96.3884441 C208.007854,89.8764225 196.162292,85.6516186 183.826842,84 C184.449908,88.3583945 184.742378,92.7480993 184.716787,97.1508501 C183.127003,146.330468 142.522749,185.237176 93.2833151,184.760737 L84,184.760737 C91.2610931,228.940622 129.608627,261.277905 174.416094,260.998199 L256.566251,260.998199 L247.919059,246.322537 C242.77524,237.859884 242.72458,227.256649 247.792147,218.749639 Z"/><g id="Group" fill="#1AA8FF"><path id="Shape" d="M253.811703,243.646023 C249.905289,237.177906 249.905289,229.084516 253.811703,222.616398 C281.46857,177.651023 267.442539,118.774773 222.477687,91.1179062 C212.536562,84.9999687 201.556414,80.7559375 190.085805,78.5957109 C186.389812,58.5600937 176.384828,40.2261719 161.536477,26.2765625 C141.915422,7.50295312 115.181898,-1.94142969 88.1238437,0.340234375 C35.4927266,4.46335156 -3.82632812,50.4672266 0.296789063,103.098344 C1.48865625,118.348172 6.32521875,133.087648 14.3992422,146.081461 C18.3056562,152.549578 18.3056562,160.642969 14.3992422,167.111086 L5.54110937,181.895578 C3.74414844,184.922617 4.7444375,188.835312 7.77147656,190.625992 C8.75292187,191.205961 9.87464844,191.51793 11.0215,191.51793 L78.8260234,191.51793 C88.8310078,236.259797 128.570383,268.046586 174.415133,267.989008 L257.004148,267.989008 C260.521648,267.989008 263.377,265.13418 263.377,261.616156 C263.377,260.475586 263.071312,259.347578 262.485062,258.366133 L253.811703,243.646023 Z M22.1675781,178.773273 L25.2265469,173.611656 C31.5863125,163.090562 31.5863125,149.911977 25.2265469,139.390883 C1.24630469,100.422008 13.3989531,49.3962734 52.3610234,25.4165547 C91.3230937,1.43683594 142.355109,13.5826797 166.335352,52.5510312 C174.581586,65.9463203 178.83818,81.4123281 178.615195,97.1400547 C177.091992,142.997367 139.232281,179.251172 93.3498437,178.773273 L22.1675781,178.773273 Z M174.664289,255.244352 C135.721062,255.467336 101.596078,229.218516 91.8203594,191.518453 L93.3498437,191.518453 C146.17882,191.958141 189.703695,150.141242 191.360375,97.3311094 C191.360375,95.4828516 191.360375,93.6351172 191.360375,91.7868594 C235.904906,102.244094 263.536648,146.826836 253.078891,191.371367 C251.045859,200.025359 247.636711,208.290437 242.978117,215.861437 C236.618352,226.382531 236.618352,239.561117 242.978117,250.082211 L246.037086,255.243828 L174.664289,255.243828 L174.664289,255.244352 Z"/><path id="Shape" d="M102.845,80.5711641 C102.845,86.9440156 96.8547812,91.0221172 81.4966016,91.6596641 L80.8595781,92.2966875 L83.6636328,112.051742 L96.4088125,112.051742 L97.7472422,104.595898 C110.747336,102.301672 121.262148,95.9293437 121.262148,80.31625 C121.262148,64.1299922 109.34557,54.8258906 91.7570234,54.8258906 C80.3434687,54.5516094 69.4083359,59.3886953 61.933125,68.0170391 L73.1488203,80.31625 C77.8074141,75.0844922 84.4346562,72.0318047 91.43825,71.9046094 C98.7025156,71.9046094 102.845,75.0907734 102.845,80.5711641 Z"/><rect id="Rectangle-path" width="19.755" height="19.5" x="79.648" y="121.713"/></g></g><text id="Hello-World" fill="#50E3C2" font-family="Helvetica" font-size="9" font-weight="normal" transform="translate(338.500000, 372.500000) scale(-1, 1) translate(-338.500000, -372.500000)"><tspan x="315" y="376">Hello World</tspan></text></g></svg>